<svg width="30" height="28" viewBox="0 0 30 28" fill="none" xmlns="http://www.w3.org/2000/svg">
<path d="M29.5938 13.2358L15.4818 0.201854C15.187 -0.0672846 14.7449 -0.0672846 14.4501 0.201854L0.26444 13.3127C0.0433645 13.5434 -0.0671732 13.8895 0.0433645 14.197C0.153902 14.5046 0.448669 14.7353 0.743437 14.7353H3.91218V27.1926C3.91218 27.654 4.2438 28 4.68595 28H11.8709V17.2345C11.8709 16.7731 12.2025 16.4271 12.6447 16.4271H17.2504C17.6926 16.4271 18.0242 16.7731 18.0242 17.2345V28H25.2091C25.6513 28 25.9829 27.654 25.9829 27.1926V14.6969H29.1516C29.5938 14.6969 29.9254 14.3508 29.9254 13.8895C29.9622 13.6203 29.8149 13.3896 29.5938 13.2358Z" fill="white"/>
</svg>
